<?xml version="1.0" encoding="UTF-8" standalone="no"?>
<!-- Created with Inkscape (http://www.inkscape.org/) -->

<svg
   xmlns:dc="http://purl.org/dc/elements/1.1/"
   xmlns:cc="http://creativecommons.org/ns#"
   xmlns:rdf="http://www.w3.org/1999/02/22-rdf-syntax-ns#"
   xmlns:svg="http://www.w3.org/2000/svg"
   xmlns="http://www.w3.org/2000/svg"
   xmlns:sodipodi="http://sodipodi.sourceforge.net/DTD/sodipodi-0.dtd"
   xmlns:inkscape="http://www.inkscape.org/namespaces/inkscape"
   width="406.95499"
   height="553.15057"
   id="svg56770"
   version="1.1"
   inkscape:version="0.48.3.1 r9886"
   sodipodi:docname="rednose-ui logo.svg">
  <defs
     id="defs56772" />
  <sodipodi:namedview
     id="base"
     pagecolor="#ffffff"
     bordercolor="#666666"
     borderopacity="1.0"
     inkscape:pageopacity="0.0"
     inkscape:pageshadow="2"
     inkscape:zoom="0.35"
     inkscape:cx="-0.75853505"
     inkscape:cy="-234.75907"
     inkscape:document-units="px"
     inkscape:current-layer="flowRoot128018-4-6-5-7-2-9-5-3-2-3"
     showgrid="false"
     fit-margin-top="0"
     fit-margin-left="0"
     fit-margin-right="0"
     fit-margin-bottom="0"
     inkscape:window-width="1920"
     inkscape:window-height="1004"
     inkscape:window-x="0"
     inkscape:window-y="24"
     inkscape:window-maximized="1" />
  <metadata
     id="metadata56775">
    <rdf:RDF>
      <cc:Work
         rdf:about="">
        <dc:format>image/svg+xml</dc:format>
        <dc:type
           rdf:resource="http://purl.org/dc/dcmitype/StillImage" />
        <dc:title />
      </cc:Work>
    </rdf:RDF>
  </metadata>
  <g
     inkscape:label="Layer 1"
     inkscape:groupmode="layer"
     id="layer1"
     transform="translate(-150.80821,-84.358211)">
    <g
       transform="matrix(0.47411008,0.18181727,0,0.52580684,-27188.919,-21340.223)"
       style="font-size:40px;font-style:normal;font-weight:normal;line-height:125%;letter-spacing:0px;word-spacing:0px;color:#000000;fill:#646464;fill-opacity:1;fill-rule:nonzero;stroke:#646464;stroke-width:6.95387697;stroke-linecap:butt;stroke-linejoin:miter;stroke-miterlimit:4;stroke-opacity:1;marker:none;visibility:visible;display:inline;overflow:visible;enable-background:accumulate;font-family:Sans"
       id="flowRoot128018-4-6-5-7-2-9-5-3-2-3">
      <path
         style="font-size:103.53993225px;font-variant:normal;font-stretch:normal;line-height:100%;letter-spacing:6.50580978px;color:#000000;fill:#646464;stroke:#646464;stroke-width:3.47199988;marker:none;visibility:visible;display:inline;overflow:visible;enable-background:accumulate;font-family:Garuda;-inkscape-font-specification:Garuda"
         d="M 4.875 414.84375 L 4.875 453.84375 L 9.5625 455.625 L 9.5625 438.40625 L 15 440.5 C 16.047309 440.90163 17.021519 441.47342 17.9375 442.1875 C 18.853955 442.90229 19.629905 443.58881 20.21875 444.25 C 20.808069 444.87561 21.436077 445.83296 22.15625 447.125 C 22.908663 448.42993 23.45364 449.42338 23.78125 450.09375 C 24.108386 450.76341 24.68315 451.94454 25.46875 453.625 L 30.03125 463.46875 L 35.90625 465.71875 L 29.8125 452.78125 C 27.652454 448.28749 25.417364 445.06875 23.09375 443.125 C 29.704267 444.67997 33.03125 442.43094 33.03125 436.40625 C 33.03125 432.37752 32.027728 429.20123 30.03125 426.875 C 28.06796 424.52522 24.855732 422.50686 20.4375 420.8125 L 4.875 414.84375 z M 9.5625 421.21875 L 20.6875 425.5 C 25.792717 427.45781 28.34375 430.48743 28.34375 434.625 C 28.34375 438.9077 25.420604 439.93403 19.5625 437.6875 L 9.5625 433.84375 L 9.5625 421.21875 z M 43.4375 429.65625 L 43.4375 468.625 L 69.625 478.65625 L 69.625 474.09375 L 48.125 465.84375 L 48.125 452.5625 L 67.5 460 L 67.5 455.40625 L 48.125 447.96875 L 48.125 436 L 68.875 443.96875 L 68.875 439.40625 L 43.4375 429.65625 z M 79.09375 443.3125 L 79.09375 482.28125 L 91.78125 487.15625 C 102.64596 491.32277 108.09375 486.85761 108.09375 473.71875 C 108.09375 467.25869 106.74596 461.91034 104.0625 457.6875 C 101.37856 453.46396 97.079307 450.20894 91.15625 447.9375 L 79.09375 443.3125 z M 83.75 449.65625 L 91.09375 452.5 C 95.544695 454.2069 98.728601 456.58169 100.59375 459.65625 C 102.49209 462.74302 103.43703 466.8297 103.4375 471.875 C 103.43703 476.99197 102.52041 480.44849 100.6875 482.25 C 98.887778 484.06424 95.733185 484.09426 91.25 482.375 L 83.75 479.5 L 83.75 449.65625 z M 117.53125 458.0625 L 117.53125 497.03125 L 122.21875 498.8125 L 122.21875 468.1875 L 140.28125 505.75 L 145.21875 507.65625 L 145.21875 468.6875 L 140.5625 466.875 L 140.5625 497.4375 L 122.5 459.96875 L 117.53125 458.0625 z M 165.0625 476.625 C 162.65793 476.64069 160.63852 477.3909 159 478.90625 C 156.08754 481.60039 154.625 486.0439 154.625 492.25 C 154.625 497.91189 156.14371 503.21925 159.1875 508.125 C 162.26353 513.00684 166.33521 516.41103 171.375 518.34375 C 176.41479 520.27647 180.45621 519.97244 183.5 517.4375 C 186.57603 514.87864 188.125 510.75564 188.125 505.09375 C 188.12453 498.88747 186.66293 493.33438 183.75 488.40625 C 180.83754 483.4783 176.70969 479.98331 171.375 477.9375 C 169.04128 477.04277 166.93272 476.6128 165.0625 476.625 z M 166.71875 481.53125 C 168.07488 481.52049 169.63265 481.83182 171.375 482.5 C 173.69861 483.39109 175.67587 484.61604 177.3125 486.1875 C 178.94865 487.75877 180.18022 489.54048 181.03125 491.5 C 181.8818 493.42306 182.51468 495.33354 182.875 497.25 C 183.26756 499.17935 183.4375 501.2077 183.4375 503.3125 C 183.4375 507.74032 182.37832 510.96598 180.21875 512.96875 C 178.0587 514.93505 175.10577 515.18072 171.375 513.75 C 167.64423 512.31928 164.6913 509.81052 162.53125 506.1875 C 160.3712 502.5282 159.3125 498.49032 159.3125 494.0625 C 159.3125 491.9577 159.48343 490.07812 159.84375 488.4375 C 160.23631 486.80977 160.83647 485.36426 161.6875 484.09375 C 162.53853 482.78696 163.80135 481.97262 165.4375 481.65625 C 165.84654 481.57716 166.26671 481.53484 166.71875 481.53125 z M 203.375 491.40625 C 202.32881 491.43883 201.37136 491.64009 200.5 492 C 198.17639 492.96028 197 495.11982 197 498.53125 C 197 501.399 197.91709 504.03391 199.75 506.40625 C 201.61515 508.79096 204.51045 511.28006 208.4375 513.875 C 212.62674 516.60676 215.43659 518.68285 216.84375 520.09375 C 218.28362 521.51667 219 523.24398 219 525.3125 C 219 526.98246 218.48335 528.14892 217.46875 528.8125 C 216.48687 529.48862 215.42816 529.80776 214.25 529.71875 C 213.07184 529.59346 211.81048 529.26454 210.46875 528.75 C 204.2508 526.36547 200.78074 522.03867 200.09375 515.75 L 195.625 514.46875 C 195.854 518.87607 197.28774 522.6834 199.90625 525.9375 C 202.557 529.16821 206.13889 531.6619 210.6875 533.40625 C 214.45099 534.84952 217.547 534.98858 219.96875 533.8125 C 222.42322 532.64844 223.65625 530.27531 223.65625 526.71875 C 223.65625 525.81121 223.57128 524.93647 223.375 524.0625 C 223.21096 523.20142 222.98046 522.40516 222.71875 521.6875 C 222.45657 520.97018 222.08592 520.24494 221.5625 519.5 C 221.07132 518.73062 220.61131 518.07585 220.21875 517.5625 C 219.82619 517.01287 219.2822 516.42058 218.5625 515.78125 C 217.87504 515.11853 217.30174 514.6126 216.84375 514.21875 C 216.418 513.83779 215.78706 513.34956 214.96875 512.78125 C 214.15091 512.21365 213.54929 511.79082 213.15625 511.53125 C 212.7964 511.28441 212.19331 510.93272 211.375 510.4375 C 210.5894 509.91802 210.104 509.56663 209.875 509.40625 C 206.83169 507.40471 204.71088 505.76306 203.5 504.5 C 202.28912 503.23694 201.65625 501.742 201.65625 500 C 201.65625 496.15267 204.29371 495.26071 209.5625 497.28125 C 214.864 499.31433 217.73097 502.8956 218.15625 508.03125 L 222.59375 509.375 C 222.4629 505.51377 221.20154 502.13142 218.8125 499.21875 C 216.45617 496.31916 213.30352 494.11229 209.34375 492.59375 C 207.11425 491.73875 205.11866 491.35194 203.375 491.40625 z M 233.1875 502.40625 L 233.1875 541.375 L 259.34375 551.40625 L 259.34375 546.84375 L 237.84375 538.59375 L 237.84375 525.3125 L 257.21875 532.75 L 257.21875 528.1875 L 237.84375 520.75 L 237.84375 508.75 L 258.59375 516.71875 L 258.59375 512.15625 L 233.1875 502.40625 z "
         transform="matrix(2.1092148,-0.72933946,0,1.9018391,57665.357,20806.164)"
         id="path56896" />
    </g>
    <path
       style="color:#000000;fill:#dddddd;fill-opacity:1;fill-rule:nonzero;stroke:none;stroke-width:5.3050518;marker:none;visibility:visible;display:inline;overflow:visible;enable-background:accumulate"
       d="m 422.95121,576.10421 134.812,-61.179 -272.143,-105.038 -134.812,63.323 z"
       id="rect14225-0-2-6-8-3-2-2"
       inkscape:connector-curvature="0"
       sodipodi:nodetypes="ccccc"
       inkscape:export-filename="/home/kin/Documents/projecten/docgen/juli2014/rednose-ui-2.png"
       inkscape:export-xdpi="58.883545"
       inkscape:export-ydpi="58.883545" />
    <path
       style="color:#000000;fill:#b6b6b6;fill-opacity:1;fill-rule:nonzero;stroke:none;stroke-width:5.12725782;marker:none;visibility:visible;display:inline;overflow:visible;enable-background:accumulate"
       d="m 288.80821,84.358211 -135.844,61.187999 0,326.469 135.844,-61.188 z m -38.298,58.432999 c 1.354,-0.11 2.624,0.2 3.626,0.937 1.601,1.179 2.531,3.429 2.531,6.094 l 0,55.719 c 0,2.666 -0.93,5.752 -2.531,8.343 -1.603,2.591 -3.859,4.659 -6.126,5.657 l -47.853,21.411 c -2.361,1.474 -4.881,1.806 -6.75,0.875 -0.03,-0.01 -0.03,-0.03 -0.06,-0.03 -0.139,-0.07 -0.275,-0.17 -0.406,-0.25 -0.08,-0.05 -0.17,-0.06 -0.25,-0.125 -0.01,0 -0.03,-0.03 -0.03,-0.03 -1.989,-1.397 -2.976,-4.426 -2.531,-7.843 l 0,-54.094 c 0,-2.666 0.931,-5.723 2.531,-8.313 1.603,-2.59 3.86,-4.688 6.125,-5.687 l 49.228,-22.005 c 0.85,-0.374 1.688,-0.591 2.5,-0.656 z m -0.874,100.937 c 1.351,-0.109 2.625,0.202 3.624,0.938 1.6,1.18 2.5,3.428 2.5,6.094 l 0,114.718 c 0,2.666 -0.9,5.753 -2.5,8.344 -1.599,2.59 -3.863,4.658 -6.124,5.656 l -47.823,21.411 c -2.357,1.475 -4.853,1.806 -6.719,0.876 -0.03,-0.01 -0.03,-0.03 -0.06,-0.03 -0.138,-0.07 -0.275,-0.17 -0.406,-0.25 -0.09,-0.05 -0.143,-0.07 -0.219,-0.125 l -0.03,-0.03 c -1.988,-1.397 -2.976,-4.427 -2.532,-7.844 l 0,-113.094 c 0,-2.665 0.934,-5.722 2.532,-8.312 1.599,-2.591 3.863,-4.688 6.124,-5.688 l 49.136,-22.005 c 0.847,-0.374 1.688,-0.59 2.5,-0.656 z"
       id="rect14225-0-2-6-8-8-1"
       inkscape:connector-curvature="0"
       sodipodi:nodetypes="cccccccssccccccccccccccccsscccccccccscccc"
       inkscape:export-filename="/home/kin/Documents/projecten/docgen/juli2014/rednose-ui-2.png"
       inkscape:export-xdpi="58.883545"
       inkscape:export-ydpi="58.883545" />
    <path
       inkscape:connector-curvature="0"
       style="color:#000000;fill:#949494;fill-opacity:1;fill-rule:nonzero;stroke:none;stroke-width:5.3050518;marker:none;visibility:visible;display:inline;overflow:visible;enable-background:accumulate"
       d="m 289.28121,84.702211 0,326.467999 267.75,102.344 0,-326.468 z m 37.531,50.717999 c 1.091,-0.03 2.281,0.165 3.469,0.626 l 0,0.03 c 0.53,0.206 1.068,0.457 1.594,0.75 l 47.731,19.616 c 2.375,0.962 4.759,2.891 6.438,5.25 1.678,2.359 2.656,5.126 2.656,7.5 l 0,114.594 c 0,19.505 0.756,23.266 1.532,27.562 l 0,0.03 c 1.588,8.039 4.938,14.72 10.656,21.5 0,0 0.01,0.02 0.03,0.03 0.02,0.04 0.04,0.04 0.06,0.06 5.512,6.32 12.232,11.148 23.782,15.826 11.861,4.803 19.577,5.475 24,3.781 l 0,-0.03 c 5.255,-2.142 7.856,-5.477 8.844,-10.782 1.156,-6.197 1.906,-15.095 1.906,-33.031 l 0,-111.281 c 0,-2.374 0.978,-4.346 2.657,-5.344 1.679,-0.999 4.031,-0.992 6.406,-0.03 l 46.344,18.75 c 2.375,0.962 4.758,2.891 6.437,5.25 1.678,2.359 2.656,5.126 2.656,7.5 l 0,110.812 c 0,27.83 -1.136,47.051 -3.968,58.781 -2.778,11.481 -8.084,20.403 -15.906,26.282 0,0 -0.03,0.01 -0.03,0.03 l -0.03,0 c -7.729,5.906 -17.944,8.791 -30.25,8.937 l -0.06,0 c -12.848,0.03 -28.668,-4.024 -47.593,-11.687 -22.608,-9.154 -41.768,-19.196 -55.109,-30.474 -0.03,-0.02 -0.06,-0.06 -0.09,-0.09 -12.293,-10.556 -22.444,-28.031 -30.031,-40.374 -0.01,-0.03 -0.03,-0.07 -0.03,-0.09 -7.291,-11.98 -12.318,-17.772 -14.75,-29.094 0,-0.02 -0.03,-0.04 -0.03,-0.06 -3.318,-15.751 -4.75,-36.157 -4.75,-62.188 l 0,-111.312 c -0.388,-2.632 0.28,-4.988 1.843,-6.313 0.02,-0.02 0.04,-0.04 0.06,-0.06 0.118,-0.1 0.248,-0.191 0.375,-0.281 0.08,-0.05 0.149,-0.08 0.219,-0.125 0,-0.01 0.03,-0.01 0.03,-0.03 0.827,-0.516 1.815,-0.785 2.906,-0.813 z"
       id="rect14225-8-3-0-9-7"
       sodipodi:nodetypes="cccccccccccsscccccccccssccccsscccccccccccccscccccccc"
       inkscape:export-filename="/home/kin/Documents/projecten/docgen/juli2014/rednose-ui-2.png"
       inkscape:export-xdpi="58.883545"
       inkscape:export-ydpi="58.883545" />
    <path
       style="color:#000000;fill:#673a3a;fill-opacity:1;fill-rule:nonzero;stroke:none;stroke-width:5.3050518;marker:none;visibility:visible;display:inline;overflow:visible;enable-background:accumulate"
       d="m 557.33021,188.73321 -135.844,61.188 0,326.469 135.844,-61.188 z m -38.298,58.433 c 1.354,-0.11 2.624,0.2 3.626,0.937 1.601,1.179 2.531,3.429 2.531,6.094 l 0,55.719 c 0,2.666 -0.93,5.752 -2.531,8.343 -1.603,2.591 -3.859,4.659 -6.126,5.657 l -47.853,21.411 c -2.361,1.474 -4.881,1.806 -6.75,0.875 -0.03,-0.01 -0.03,-0.03 -0.06,-0.03 -0.139,-0.07 -0.275,-0.17 -0.406,-0.25 -0.08,-0.05 -0.17,-0.06 -0.25,-0.125 -0.01,0 -0.03,-0.03 -0.03,-0.03 -1.989,-1.397 -2.976,-4.426 -2.531,-7.843 l 0,-54.094 c -0.001,-2.666 0.931,-5.723 2.531,-8.313 1.603,-2.59 3.86,-4.688 6.125,-5.687 l 49.228,-22.005 c 0.85,-0.374 1.688,-0.591 2.5,-0.656 z m -0.874,100.937 c 1.351,-0.109 2.625,0.202 3.624,0.938 1.6,1.18 2.5,3.428 2.5,6.094 l 0,114.718 c 0,2.666 -0.9,5.753 -2.5,8.344 -1.599,2.59 -3.863,4.658 -6.124,5.656 l -47.823,21.411 c -2.357,1.475 -4.853,1.806 -6.719,0.876 -0.03,-0.01 -0.03,-0.03 -0.06,-0.03 -0.138,-0.07 -0.275,-0.17 -0.406,-0.25 -0.09,-0.05 -0.143,-0.07 -0.219,-0.125 l -0.03,-0.03 c -1.988,-1.397 -2.976,-4.427 -2.532,-7.844 l 0,-113.094 c 0,-2.665 0.934,-5.722 2.532,-8.312 1.599,-2.591 3.863,-4.688 6.124,-5.688 l 49.136,-22.005 c 0.847,-0.374 1.688,-0.59 2.5,-0.656 z"
       id="rect14225-0-2-6-8-5"
       inkscape:connector-curvature="0"
       sodipodi:nodetypes="cccccccssccccccccccccccccsscccccccccscccc"
       inkscape:export-filename="/home/kin/Documents/projecten/docgen/juli2014/rednose-ui-2.png"
       inkscape:export-xdpi="58.883545"
       inkscape:export-ydpi="58.883545" />
    <path
       style="color:#000000;fill:#9c2c2c;fill-opacity:1;fill-rule:nonzero;stroke:none;stroke-width:5.3050518;marker:none;visibility:visible;display:inline;overflow:visible;enable-background:accumulate"
       d="m 153.41621,147.33221 0,326.468 269.77,102.344 0,-326.468 z m 41.855,52.738 c 1.099,-0.03 2.298,0.165 3.495,0.626 l 0,0.03 c 0.534,0.206 1.076,0.457 1.606,0.75 l 45.213,18.187 c 2.393,0.962 4.795,2.891 6.486,5.25 1.691,2.359 2.676,5.126 2.676,7.5 l 0,108.594 c 0,19.505 0.762,29.266 1.544,33.562 l 0,0.03 c 1.6,8.039 4.975,14.72 10.736,21.5 0,0 0.01,0.02 0.03,0.03 0.02,0.04 0.04,0.04 0.06,0.06 5.554,6.32 9.635,10.052 21.273,14.73 11.95,4.803 19.724,5.475 24.181,3.781 l 0,-0.03 c 5.294,-2.142 7.915,-5.477 8.91,-10.782 1.165,-6.197 1.921,-15.095 1.921,-33.031 l 0,-111.281 c 0,-2.374 0.985,-4.346 2.677,-5.344 1.691,-0.999 4.061,-0.992 6.454,-0.03 l 46.694,18.75 c 2.393,0.962 4.794,2.891 6.485,5.25 1.691,2.359 2.676,5.126 2.676,7.5 l 0,110.812 c 0,27.83 -1.144,47.051 -3.998,58.781 -2.798,11.481 -8.145,20.403 -16.026,26.282 0,0 -0.03,0.01 -0.03,0.03 l -0.03,0 c -7.787,5.906 -18.079,8.791 -30.478,8.937 l -0.06,0 c -12.945,0.03 -28.884,-4.024 -47.952,-11.687 -22.778,-9.154 -36.516,-16.671 -49.957,-27.949 -0.03,-0.02 -0.06,-0.06 -0.09,-0.09 -12.386,-10.556 -22.613,-22.031 -30.257,-34.374 -0.01,-0.03 -0.03,-0.07 -0.03,-0.09 -7.346,-11.98 -12.411,-23.772 -14.861,-35.094 0,-0.02 -0.03,-0.04 -0.03,-0.06 -3.343,-15.751 -4.786,-36.157 -4.786,-62.188 l 0,-111.312 c -0.391,-2.632 0.282,-4.988 1.857,-6.313 0.02,-0.02 0.04,-0.04 0.06,-0.06 0.119,-0.1 0.25,-0.191 0.378,-0.281 0.07,-0.05 0.15,-0.08 0.221,-0.125 0,-0.01 0.03,-0.01 0.03,-0.03 0.833,-0.516 1.829,-0.785 2.928,-0.813 z"
       id="rect14225-8-3-0-2"
       inkscape:connector-curvature="0"
       sodipodi:nodetypes="ccccccccccssscccccccccsscccsssccccccsccccccscccccccc"
       inkscape:export-filename="/home/kin/Documents/projecten/docgen/juli2014/rednose-ui-2.png"
       inkscape:export-xdpi="58.883545"
       inkscape:export-ydpi="58.883545" />
  </g>
</svg>
